# xmcd
#
# Track frame offsets: 
#        150
#        14828
#        35209
#        52564
#        70002
#        83322
#
# Disc length: 1329 seconds
#
# Revision: 0
# Processed by: cddbd v1.5.2PL0 Copyright (c) Steve Scherf et al.
# Submitted via: ExactAudioCopy v0.95b4
#
DISCID=3f052f06
DTITLE=Various Artist - Curb Christmas Radio Sampler 2006
DYEAR=2006
DGENRE=Christmas/Holiday
TTITLE0=Selah With Plumb - Mary Sweet Mary
TTITLE1=Natalie Grant - Joy To The World
TTITLE2=Wynonna - Ave Maria
TTITLE3=Fernando Ortega - Traveler
TTITLE4=Jamie Slocum - Never Merry Christmas
TTITLE5=Michael English - Mary, Did You Know
EXTD=
EXTT0=
EXTT1=
EXTT2=
EXTT3=
EXTT4=
EXTT5=
PLAYORDER=
